<svg width="65" height="65" viewBox="0 0 65 65" fill="none" xmlns="http://www.w3.org/2000/svg">
<g clip-path="url(#clip0_399_99)">
<path d="M51.4583 0H13.5417C6.06396 0 0 6.06396 0 13.5417V51.4583C0 58.936 6.06396 65 13.5417 65H51.4583C58.9387 65 65 58.936 65 51.4583V13.5417C65 6.06396 58.9387 0 51.4583 0ZM21.6667 51.4583H13.5417V21.6667H21.6667V51.4583ZM17.6042 18.2325C14.9879 18.2325 12.8646 16.0929 12.8646 13.455C12.8646 10.8171 14.9879 8.6775 17.6042 8.6775C20.2204 8.6775 22.3437 10.8171 22.3437 13.455C22.3437 16.0929 20.2231 18.2325 17.6042 18.2325ZM54.1667 51.4583H46.0417V36.2808C46.0417 27.1592 35.2083 27.8498 35.2083 36.2808V51.4583H27.0833V21.6667H35.2083V26.4469C38.9892 19.4431 54.1667 18.9258 54.1667 33.1527V51.4583Z" fill="white"/>
</g>
<defs>
<clipPath id="clip0_399_99">
<rect width="65" height="65" fill="white"/>
</clipPath>
</defs>
</svg>
