<svg width="65" height="65" viewBox="0 0 65 65" fill="none" xmlns="http://www.w3.org/2000/svg">
<path fill-rule="evenodd" clip-rule="evenodd" d="M51.4583 65H13.5417C6.06396 65 0 58.936 0 51.4583V13.5417C0 6.06396 6.06396 0 13.5417 0H51.4583C58.9387 0 65 6.06396 65 13.5417V51.4583C65 58.936 58.9387 65 51.4583 65ZM51.0765 47.8481C52.7827 47.8481 54.1667 46.4615 54.1667 44.7552V20.2448C54.1667 18.5385 52.7827 17.1519 51.0765 17.1519H13.9235C12.2173 17.1519 10.8333 18.5385 10.8333 20.2448V44.7552C10.8333 46.4615 12.2173 47.8481 13.9235 47.8481H51.0765ZM32.5 36.8577L15.6325 25.155L15.5946 46.0417H49.3323V25.155L32.5 36.8577ZM48.5144 18.9583C43.7883 22.249 32.5 30.206 32.5 30.206L16.3935 18.9583H48.5144Z" fill="white"/>
</svg>
