<svg width="65" height="65" viewBox="0 0 65 65" fill="none" xmlns="http://www.w3.org/2000/svg">
<path d="M51.4583 0H13.5417C6.06396 0 0 6.06396 0 13.5417V51.4583C0 58.936 6.06396 65 13.5417 65H51.4583C58.9387 65 65 58.936 65 51.4583V13.5417C65 6.06396 58.9387 0 51.4583 0ZM39.3629 53.0562C38.266 53.2675 37.9167 52.5931 37.9167 52.0162V46.0715C37.9167 44.0483 37.2071 42.7321 36.4271 42.0604C41.2533 41.5242 46.3233 39.6906 46.3233 31.3706C46.3233 29.0035 45.4783 27.0698 44.0944 25.5558C44.3165 25.0087 45.0585 22.8042 43.8804 19.8223C43.8804 19.8223 42.0631 19.24 37.9275 22.0431C36.1942 21.5556 34.3417 21.32 32.5 21.3092C30.6583 21.3173 28.8058 21.5556 27.0752 22.0377C22.9369 19.2346 21.1169 19.8169 21.1169 19.8169C19.9415 22.8015 20.6835 25.0033 20.9083 25.5531C19.5217 27.0698 18.6767 29.0008 18.6767 31.3679C18.6767 39.6662 23.7331 41.5269 28.5485 42.0767C27.9283 42.6183 27.3677 43.5717 27.1727 44.9746C25.935 45.5271 22.8015 46.4831 20.8677 43.1708C20.8677 43.1708 19.7221 41.0908 17.5446 40.9365C17.5446 40.9365 15.4321 40.9094 17.3956 42.2554C17.3956 42.2554 18.8175 42.9217 19.8033 45.4242C19.8033 45.4242 21.0573 49.2917 27.0833 47.9808V52.0135C27.0833 52.585 26.734 53.2567 25.6533 53.0562C17.0408 50.1935 10.8333 42.0712 10.8333 32.5C10.8333 20.5319 20.5346 10.8333 32.5 10.8333C44.4654 10.8333 54.1667 20.5319 54.1667 32.5C54.1667 42.0685 47.9673 50.1881 39.3629 53.0562Z" fill="white"/>
</svg>
