<svg width="65" height="65" viewBox="0 0 65 65" fill="none" xmlns="http://www.w3.org/2000/svg">
<path d="M41.256 14.8633C38.9729 14.7604 38.285 14.7387 32.5 14.7387C26.715 14.7387 26.0298 14.7604 23.7467 14.8633C17.8696 15.1315 15.1315 17.9156 14.866 23.744C14.7604 26.0298 14.736 26.715 14.736 32.5C14.736 38.285 14.7604 38.9702 14.8633 41.256C15.1315 47.0735 17.8587 49.8685 23.744 50.1367C26.0271 50.2396 26.715 50.264 32.5 50.264C38.2877 50.264 38.9729 50.2423 41.256 50.1394C47.1331 49.8712 49.8685 47.0817 50.1367 41.2587C50.2396 38.9729 50.2613 38.2877 50.2613 32.5027C50.2613 26.7177 50.2396 26.0325 50.1367 23.7494C49.8685 17.9183 47.1277 15.1315 41.256 14.8633ZM32.5 43.6258C26.3548 43.6258 21.3742 38.6452 21.3742 32.5C21.3742 26.3548 26.3575 21.3742 32.5 21.3742C38.6425 21.3742 43.6258 26.3548 43.6258 32.5C43.6258 38.6452 38.6452 43.6258 32.5 43.6258ZM44.0673 23.5354C42.6319 23.5354 41.4673 22.3708 41.4673 20.9354C41.4673 19.5 42.6319 18.3354 44.0673 18.3354C45.5027 18.3354 46.6673 19.5 46.6673 20.9354C46.6673 22.3708 45.5027 23.5354 44.0673 23.5354ZM39.7231 32.5C39.7231 36.4894 36.4894 39.7231 32.5 39.7231C28.5106 39.7231 25.2769 36.4894 25.2769 32.5C25.2769 28.5106 28.5106 25.2769 32.5 25.2769C36.4894 25.2769 39.7231 28.5106 39.7231 32.5ZM51.4583 0H13.5417C6.06396 0 0 6.06396 0 13.5417V51.4583C0 58.936 6.06396 65 13.5417 65H51.4583C58.9387 65 65 58.936 65 51.4583V13.5417C65 6.06396 58.9387 0 51.4583 0ZM54.0367 41.4321C53.6792 49.3106 49.2944 53.6765 41.4348 54.0367C39.1219 54.1423 38.3852 54.1667 32.5 54.1667C26.6148 54.1667 25.8808 54.1423 23.5679 54.0367C15.6921 53.6765 11.3262 49.3025 10.9633 41.4321C10.8577 39.1219 10.8333 38.3852 10.8333 32.5C10.8333 26.6175 10.8577 25.8781 10.9633 23.5679C11.3262 15.6921 15.6975 11.3235 23.5679 10.966C25.8808 10.8577 26.6148 10.8333 32.5 10.8333C38.3852 10.8333 39.1219 10.8577 41.4348 10.9633C49.3106 11.3235 53.6846 15.7056 54.0367 23.5652C54.1423 25.8781 54.1667 26.6175 54.1667 32.5C54.1667 38.3852 54.1423 39.1219 54.0367 41.4321Z" fill="white"/>
</svg>
